<svg width="215" height="1001" viewBox="0 0 215 1001" fill="none" xmlns="http://www.w3.org/2000/svg">
<rect x="5" width="207" height="720" fill="#F32929"/>
<path d="M0.799985 941.906C0.799986 930.473 2.19998 920.439 4.99998 911.806C7.56665 903.173 13.05 896.406 21.45 891.506C30.0833 886.839 42.8 884.506 59.6 884.506L168.1 884.506C180.467 884.506 190.033 886.839 196.8 891.506C203.567 896.406 208.233 903.173 210.8 911.806C213.6 920.673 215 930.823 215 942.256C215 953.456 213.6 963.373 210.8 972.006C208 980.873 203.217 987.756 196.45 992.656C189.683 997.789 180.233 1000.36 168.1 1000.36L59.95 1000.36C42.9166 1000.36 30.0833 997.789 21.45 992.656C13.05 987.756 7.56665 980.873 4.99998 972.006C2.19998 963.373 0.799985 953.339 0.799985 941.906ZM24.6 941.906C24.6 945.406 25.1833 948.439 26.35 951.006C27.5167 953.806 29.5 955.906 32.3 957.306C35.3333 958.939 39.4167 959.756 44.55 959.756L169.85 959.756C174.983 959.756 178.95 958.939 181.75 957.306C184.783 955.906 186.883 953.806 188.05 951.006C189.217 948.439 189.8 945.406 189.8 941.906C189.8 938.406 189.217 935.373 188.05 932.806C186.883 930.239 184.783 928.139 181.75 926.506C178.95 925.106 174.983 924.406 169.85 924.406L44.55 924.406C39.4167 924.406 35.3333 925.106 32.3 926.506C29.5 928.139 27.5167 930.239 26.35 932.806C25.1833 935.373 24.6 938.406 24.6 941.906Z" fill="#F32929"/>
<path d="M5.00009 823.887L211.85 823.887L211.85 864.487L5.00009 864.487L5.00009 823.887Z" fill="#F32929"/>
<path d="M5.00009 688.7L211.85 688.7L211.85 762.2C211.85 775.267 208.7 785.183 202.4 791.95C196.333 798.95 187.817 802.45 176.85 802.45L153.4 802.45C147.333 802.45 141.733 801.517 136.6 799.65C131.7 798.017 127.5 795.45 124 791.95C121.433 789.383 119.45 786.117 118.05 782.15C116.65 778.183 115.833 774.333 115.6 770.6L115.25 770.6C115.25 774.567 114.783 778.417 113.85 782.15C112.917 785.883 111.05 789.383 108.25 792.65C105.217 796.617 101.017 799.767 95.6501 802.1C90.5168 804.433 84.1001 805.6 76.4001 805.6L48.0501 805.6C36.8501 805.6 28.1001 803.617 21.8001 799.65C15.5001 795.917 11.0668 790.433 8.50009 783.2C6.16675 776.2 5.00009 767.8 5.00009 758L5.00009 688.7ZM26.3501 729.65L26.3501 748.55C26.3501 752.05 26.9334 754.85 28.1001 756.95C29.5001 759.283 31.9501 761.033 35.4501 762.2C38.9501 763.6 44.0834 764.3 50.8501 764.3L75.3501 764.3C84.6834 764.3 90.7501 762.667 93.5501 759.4C96.5834 756.367 98.1001 752.283 98.1001 747.15L98.1001 729.65L26.3501 729.65ZM123.65 729.65L123.65 746.1C123.65 751.467 125.517 755.667 129.25 758.7C132.983 761.967 139.517 763.6 148.85 763.6L169.5 763.6C176.733 763.6 181.867 762.2 184.9 759.4C188.167 756.833 189.8 753.45 189.8 749.25L189.8 729.65L123.65 729.65Z" fill="#F32929"/>
</svg>
