<svg width="216" height="1094" viewBox="0 0 216 1094" fill="none" xmlns="http://www.w3.org/2000/svg">
<rect x="5" width="207" height="516" fill="#F32929"/>
<path d="M0.799955 1022.33C0.799955 1010.9 2.19995 1000.86 4.99995 992.23C7.56662 983.596 13.05 976.83 21.45 971.93C30.0833 967.263 42.8 964.93 59.6 964.93L168.1 964.93C180.467 964.93 190.033 967.263 196.8 971.93C203.567 976.83 208.233 983.596 210.8 992.23C213.6 1001.1 215 1011.25 215 1022.68C215 1033.88 213.6 1043.8 210.8 1052.43C208 1061.3 203.217 1068.18 196.45 1073.08C189.683 1078.21 180.233 1080.78 168.1 1080.78L59.9499 1080.78C42.9166 1080.78 30.0833 1078.21 21.4499 1073.08C13.0499 1068.18 7.56662 1061.3 4.99995 1052.43C2.19995 1043.8 0.799954 1033.76 0.799955 1022.33ZM24.6 1022.33C24.6 1025.83 25.1833 1028.86 26.35 1031.43C27.5166 1034.23 29.5 1036.33 32.3 1037.73C35.3333 1039.36 39.4166 1040.18 44.55 1040.18L169.85 1040.18C174.983 1040.18 178.95 1039.36 181.75 1037.73C184.783 1036.33 186.883 1034.23 188.05 1031.43C189.217 1028.86 189.8 1025.83 189.8 1022.33C189.8 1018.83 189.217 1015.8 188.05 1013.23C186.883 1010.66 184.783 1008.56 181.75 1006.93C178.95 1005.53 174.983 1004.83 169.85 1004.83L44.55 1004.83C39.4166 1004.83 35.3333 1005.53 32.3 1006.93C29.5 1008.56 27.5166 1010.66 26.35 1013.23C25.1833 1015.8 24.6 1018.83 24.6 1022.33Z" fill="#F32929"/>
<path d="M4.99997 827.407L211.85 827.407L211.85 903.007C211.85 916.774 208.7 927.157 202.4 934.157C196.333 941.157 187.817 944.657 176.85 944.657L144.65 944.657C133.683 944.657 124.467 941.74 117 935.907C109.533 930.074 105.217 920.974 104.05 908.607C102.883 916.54 100.2 922.14 96 925.407C92.0333 928.907 85.5 931.94 76.4 934.507L4.99996 954.107L4.99997 908.957L73.6 893.907C79.2 892.507 83.8666 890.874 87.6 889.007C91.5666 887.374 93.55 884.924 93.55 881.657L93.55 869.757L4.99997 869.757L4.99997 827.407ZM121.9 869.757L121.9 886.557C121.9 893.09 123.65 897.757 127.15 900.557C130.883 903.357 136.717 904.757 144.65 904.757L169.5 904.757C176.967 904.757 182.217 903.474 185.25 900.907C188.283 898.34 189.8 894.374 189.8 889.007L189.8 869.757L121.9 869.757Z" fill="#F32929"/>
<path d="M4.99997 743.631L183.15 743.631L183.15 711.431L211.85 711.431L211.85 816.431L183.15 816.431L183.15 784.231L4.99997 784.231L4.99997 743.631Z" fill="#F32929"/>
<path d="M5 586.768L211.85 586.768L211.85 622.118L86.55 665.168L211.85 665.168L211.85 700.868L5 700.868L5 665.518L121.9 622.468L5 622.468L5 586.768Z" fill="#F32929"/>
<path d="M5 523.7L211.85 523.7L211.85 564.3L5 564.3L5 523.7Z" fill="#F32929"/>
</svg>
