<svg width="207" height="927" viewBox="0 0 207 927" fill="none" xmlns="http://www.w3.org/2000/svg">
<rect width="207" height="637" fill="#F32929"/>
<path d="M-6.6262e-07 625.159L206.85 625.159L206.85 675.909L73.15 704.259L206.85 732.959L206.85 783.359L-7.57776e-06 783.359L-6.01727e-06 747.659L154.7 747.659L-4.71685e-06 717.909L-3.50823e-06 690.259L154.7 660.859L-2.22312e-06 660.859L-6.6262e-07 625.159ZM-8.55893e-06 805.805L206.85 805.805L206.85 901.005L178.15 901.005L178.15 848.155L122.85 848.155L122.85 892.955L91 892.955L91 848.155L28 848.155L28 901.005L-1.27203e-05 901.005L-8.55893e-06 805.805Z" fill="#F32929"/>
</svg>
