<svg width="207" height="766" viewBox="0 0 207 766" fill="none" xmlns="http://www.w3.org/2000/svg">
<path d="M0 0H207V347H0V0Z" fill="#F32929"/>
<path d="M207 751.3L0.149992 751.3L0.14999 700.55L133.85 672.2L0.149987 643.5L0.149985 593.1L207 593.1L207 628.8L52.3 628.8L207 658.55L207 686.2L52.3 715.6L207 715.6L207 751.3ZM207 546.854L0.149985 580.804L0.149983 538.804L163.95 517.804L0.149981 496.104L0.149979 455.504L207 489.804L207 546.854ZM207 443.327L0.149979 443.327L0.149976 369.827C0.149975 356.061 3.29998 345.677 9.59998 338.677C15.6666 331.444 24.1833 327.827 35.15 327.827L70.85 327.827C80.1833 327.827 88.9333 328.994 97.1 331.327C105.033 333.661 111.45 337.861 116.35 343.927C121.25 349.994 123.7 358.744 123.7 370.177L123.7 400.977L207 400.977L207 443.327ZM101.3 400.977L101.3 385.227C101.3 379.627 98.6166 375.427 93.25 372.627C87.8833 369.827 79.0166 368.427 66.65 368.427L52.65 368.427C41.6833 368.427 33.8666 369.594 29.2 371.927C24.5333 374.261 22.2 377.644 22.2 382.077L22.2 400.977L101.3 400.977Z" fill="#F32929"/>
</svg>
