<svg width="199" height="70" viewBox="0 0 199 70" fill="none" xmlns="http://www.w3.org/2000/svg">
<path d="M138.049 7.71988C136.83 5.66406 134.608 5.67731 132.856 5.35269C130.778 4.96789 128.669 4.75686 126.554 4.62639C122.203 4.34329 117.787 4.50565 113.354 4.81176C104.619 5.43194 95.8514 6.12794 86.9984 8.09877C78.2453 10.0554 69.4376 12.6882 60.6525 15.3905C51.8673 18.0928 42.7834 21.2626 33.8524 24.6567C25.8898 27.6911 18.0417 31.8741 10.237 37.7316C7.67834 39.6594 4.8376 41.5349 2.58045 44.8419C0.323303 48.149 -0.0501522 52.3605 1.7166 55.0895C3.27958 57.4867 5.44201 58.5572 7.44108 59.7934C10.8676 61.915 14.2456 64.0602 17.8605 65.5467C25.6795 68.7761 33.9253 69.797 42.3678 69.6128C59.8887 69.2476 77.7309 66.6709 95.5127 63.6092C113.294 60.5475 130.94 56.0229 148.732 50.9044C157.482 48.3916 166.253 45.6214 175.019 42.164C179.159 40.5291 183.297 38.6652 187.41 36.1758C189.143 35.1244 190.863 33.9561 192.571 32.7041C193.951 31.7016 195.467 30.7733 196.751 29.2304C200.101 25.2272 197.836 19.3668 196.258 16.4278C194.308 12.7824 191.641 10.4748 188.891 8.70739C182.403 4.54818 175.213 2.21961 168.108 0.576699C152.089 -3.1096 135.182 -1.71576 118.226 2.23413C101.23 6.20928 84.1277 12.7136 67.064 19.5355C62.9381 21.1892 58.8207 22.8446 54.6919 24.5142C53.8032 24.8724 52.919 26.1137 52.0304 26.4719C68.537 19.841 85.0617 13.0173 101.552 8.00088C118.046 2.96865 134.548 -0.2974 150.552 0.510556C158.524 0.908991 166.351 2.32631 173.893 4.99785C177.105 6.13195 180.29 7.45718 183.391 9.04463C186.216 10.4993 189.008 12.2746 191.362 15.0797C192.477 16.4135 193.496 17.9747 194.317 19.8424C195.138 21.71 196.003 24.0106 195.877 26.6503C195.75 29.29 194.505 30.9056 193.253 32.0788C193.05 32.2699 192.039 33.0467 193.124 32.2509C194.208 31.4552 193.098 32.2462 192.904 32.3899C192.357 32.7625 191.814 33.1192 191.262 33.4745C190.117 34.2101 188.968 34.8794 187.815 35.5156C179.623 40.027 171.3 42.7168 163.089 45.3783C145.84 50.9568 128.567 55.5669 111.407 59.136C94.2478 62.705 77.0989 65.2141 60.1 66.7706C51.6633 67.5442 43.1613 68.2403 34.9466 67.2904C26.7319 66.3405 19.1637 63.7622 12.0159 59.1051C9.96601 57.7614 7.78087 56.6704 5.87274 54.8954C4.29684 53.4271 2.41827 50.8244 3.44138 46.7333C4.63306 41.9708 8.28734 39.331 10.7061 37.4427C14.5588 34.4476 18.5503 32.2787 22.4893 30.3452C30.8818 26.2304 39.3361 23.5485 47.7199 20.6739C56.1038 17.7992 64.9713 15.1775 73.5868 12.7706C82.2023 10.3636 90.6467 8.54586 99.1035 7.75968C107.56 6.9735 116.169 5.98676 124.511 6.58441C126.484 6.72113 128.451 6.93842 130.382 7.2963C132.075 7.60983 134.194 7.62656 135.371 9.62548C135.453 9.75506 136.564 8.76819 136.707 8.66399C136.85 8.55979 137.959 7.53974 138.032 7.66774L138.049 7.71988Z" fill="#F32929"/>
</svg>
