<svg width="211" height="1316" viewBox="0 0 211 1316" fill="none" xmlns="http://www.w3.org/2000/svg">
<rect x="4" width="207" height="897" fill="#F32929"/>
<path d="M211 1301.3L4.14999 1301.3L4.14999 1265.95L129.45 1222.9L4.14999 1222.9L4.14999 1187.2L211 1187.2L211 1222.55L94.1 1265.6L211 1265.6L211 1301.3ZM211 1165.09L4.14999 1165.09L4.14998 1069.89L32.85 1069.89L32.85 1122.74L88.15 1122.74L88.15 1077.94L120 1077.94L120 1122.74L183 1122.74L183 1069.89L211 1069.89L211 1165.09ZM211 1033.84L4.14998 1065.34L4.14998 1023.34L158.5 1003.74L4.14998 982.043L4.14998 948.443L158.5 927.093L4.14997 907.143L4.14997 865.493L211 896.643L211 943.893L90.95 965.243L211 986.243L211 1033.84Z" fill="#F32929"/>
</svg>
