<svg width="128" height="9" viewBox="0 0 128 9" fill="none" xmlns="http://www.w3.org/2000/svg">
<path d="M31.288 1.60199C34.3102 2.18224 37.3711 2.02523 40.4301 2.08128C43.489 2.13734 46.7949 2.30612 49.9788 2.25987C56.3233 2.17068 62.6695 2.13602 69.0161 2.18301C75.3627 2.23 81.6191 2.41741 87.9211 2.52556C94.2231 2.63371 100.445 2.42924 106.692 2.09457C110.233 1.90375 113.771 1.59033 117.313 1.4676C119.035 1.40823 120.759 1.41695 122.478 1.41639C123.182 1.41698 123.832 1.37398 124.527 1.28339C125.073 1.20772 125.702 1.12733 126.141 1.52226L127.369 0.906291C126.103 1.28894 124.675 0.991832 123.392 0.829303C121.798 0.627814 120.18 0.611051 118.577 0.585963C114.847 0.531001 111.119 0.616736 107.39 0.611768C99.9433 0.597791 92.51 0.670716 85.0712 0.938375C77.6323 1.20603 70.2327 1.33968 62.8166 1.69924C55.405 2.05905 47.9979 2.42361 40.5964 2.94269C33.1949 3.46176 25.7924 4.08963 18.4485 5.08796C14.8136 5.58226 11.1994 6.20917 7.57807 6.7949C6.55344 6.95889 5.52857 7.1274 4.49739 7.24116C3.64667 7.33262 2.78678 7.42361 1.95424 7.60674C1.67512 7.66921 1.42279 7.74669 1.16351 7.86916C0.99854 7.94669 0.0768349 8.25214 0.0101976 8.47089C-0.0448988 8.64489 0.280781 8.57125 0.408919 8.58251C0.807324 8.61246 1.2115 8.62005 1.6118 8.61382C2.47659 8.60473 3.33577 8.52731 4.1959 8.43181C7.74763 8.03293 11.2877 7.59262 14.8492 7.27135C22.2076 6.60942 29.5918 6.24365 36.972 5.86859C51.677 5.12012 66.456 4.62499 81.1499 5.93054C82.9484 6.08833 84.7453 6.27778 86.5361 6.49413C86.6778 6.51062 87.0267 6.25678 87.1543 6.1909C87.2819 6.12502 87.6221 5.86166 87.7637 5.87815C76.2783 4.49589 64.6921 4.33295 53.1409 4.64354C47.3353 4.80179 41.5372 5.07837 35.7378 5.38208C29.9383 5.6858 24.2638 5.97339 18.5383 6.44426C15.3477 6.70787 12.1595 7.01241 8.97738 7.37625C7.49285 7.54334 6.01852 7.779 4.52671 7.90942C3.7831 7.97475 3.04092 8.01295 2.29241 7.99638C2.15028 7.98893 0.990636 8.00978 1.30462 7.80853L1.12494 7.90343C1.15316 7.8913 -0.171061 8.42057 0.377298 8.30872C0.479587 8.28686 0.582351 8.25597 0.684639 8.23412C0.940598 8.17497 1.19561 8.13391 1.45062 8.09285C1.96981 8.01122 2.49287 7.94339 3.01546 7.88462C4.25945 7.74573 5.48794 7.55161 6.72608 7.34893C11.0801 6.64287 15.4266 5.90467 19.8082 5.37242C28.4787 4.32571 37.1938 3.65327 45.9101 3.13509C54.7142 2.60791 63.5233 2.16264 72.3365 1.899C81.1773 1.63681 90.0151 1.25653 98.8576 1.22574C103.244 1.2108 107.628 1.24562 112.016 1.20807C114.21 1.18703 116.404 1.17051 118.599 1.23113C119.595 1.25615 120.605 1.27285 121.598 1.37929C122.398 1.46658 123.191 1.59434 123.992 1.65902C124.711 1.71486 125.45 1.73546 126.141 1.52679C126.295 1.48044 127.303 0.852932 127.369 0.910815C126.64 0.25577 125.324 0.799088 124.446 0.807455C122.886 0.825479 121.329 0.798272 119.769 0.829865C116.598 0.890408 113.43 1.1733 110.262 1.35645C103.972 1.72063 97.6776 1.98481 91.3766 1.94475C85.0757 1.90468 78.781 1.65631 72.4813 1.59363C66.1815 1.53095 59.8685 1.54469 53.5614 1.62222C50.0006 1.66686 46.4552 1.59437 42.8924 1.50283C39.3296 1.41129 35.9286 1.65479 32.5103 0.999346C32.3829 0.974523 32.0101 1.24525 31.8921 1.30257C31.7742 1.35988 31.4101 1.64014 31.2827 1.61532L31.288 1.60199Z" fill="#F32929"/>
</svg>
