<svg width="207" height="993" viewBox="0 0 207 993" fill="none" xmlns="http://www.w3.org/2000/svg">
<rect width="207" height="516" fill="#F32929"/>
<path d="M-6.42557e-07 484.7L206.85 484.7L206.85 560.3C206.85 574.067 203.7 584.45 197.4 591.45C191.333 598.45 182.817 601.95 171.85 601.95L139.65 601.95C128.683 601.95 119.467 599.033 112 593.2C104.533 587.367 100.217 578.267 99.05 565.9C97.8833 573.833 95.2 579.433 91 582.7C87.0333 586.2 80.5 589.233 71.4 591.8L-6.18079e-06 611.4L-4.20722e-06 566.25L68.6 551.2C74.2 549.8 78.8667 548.167 82.6 546.3C86.5667 544.667 88.55 542.217 88.55 538.95L88.55 527.05L-2.49373e-06 527.05L-6.42557e-07 484.7ZM116.9 527.05L116.9 543.85C116.9 550.383 118.65 555.05 122.15 557.85C125.883 560.65 131.717 562.05 139.65 562.05L164.5 562.05C171.967 562.05 177.217 560.767 180.25 558.2C183.283 555.633 184.8 551.667 184.8 546.3L184.8 527.05L116.9 527.05ZM-6.76096e-06 624.673L206.85 624.673L206.85 719.873L178.15 719.873L178.15 667.023L122.85 667.023L122.85 711.823L91 711.823L91 667.023L28 667.023L28 719.873L-1.09223e-05 719.873L-6.76096e-06 624.673ZM-1.10444e-05 722.667L206.85 759.767L206.85 817.867L-1.67969e-05 854.267L-1.4808e-05 808.767L38.15 802.467L38.15 772.367L-1.29568e-05 766.417L-1.10444e-05 722.667ZM58.45 773.067L58.45 802.117L170.8 787.767L58.45 773.067ZM-1.72497e-05 864.628L206.85 864.628L206.85 937.078C206.85 946.878 205.45 954.928 202.65 961.228C199.85 967.761 195.533 972.544 189.7 975.578C184.1 978.844 176.983 980.478 168.35 980.478L44.45 980.478C33.0166 980.478 24.0333 978.494 17.5 974.528C10.9666 970.561 6.41665 964.844 3.84998 957.378C1.28331 950.144 -2.06104e-05 941.511 -2.01718e-05 931.478L-1.72497e-05 864.628ZM21 906.978L21 924.828C21 929.494 22.4 933.111 25.2 935.678C28 938.478 33.25 939.878 40.95 939.878L163.8 939.878C171.5 939.878 176.75 938.478 179.55 935.678C182.35 933.111 183.75 929.494 183.75 924.828L183.75 906.978L21 906.978Z" fill="#F32929"/>
</svg>
