<svg width="213" height="1308" viewBox="0 0 213 1308" fill="none" xmlns="http://www.w3.org/2000/svg">
<rect x="5" width="207" height="516" fill="#F32929"/>
<path d="M5 484.7L211.85 484.7L211.85 560.3C211.85 574.067 208.7 584.45 202.4 591.45C196.333 598.45 187.817 601.95 176.85 601.95L144.65 601.95C133.683 601.95 124.467 599.033 117 593.2C109.533 587.367 105.217 578.267 104.05 565.9C102.883 573.833 100.2 579.433 96 582.7C92.0333 586.2 85.5 589.233 76.4 591.8L4.99999 611.4L5 566.25L73.6 551.2C79.2 549.8 83.8667 548.167 87.6 546.3C91.5667 544.667 93.55 542.217 93.55 538.95L93.55 527.05L5 527.05L5 484.7ZM121.9 527.05L121.9 543.85C121.9 550.383 123.65 555.05 127.15 557.85C130.883 560.65 136.717 562.05 144.65 562.05L169.5 562.05C176.967 562.05 182.217 560.767 185.25 558.2C188.283 555.633 189.8 551.667 189.8 546.3L189.8 527.05L121.9 527.05ZM4.99999 624.673L211.85 624.673L211.85 719.873L183.15 719.873L183.15 667.023L127.85 667.023L127.85 711.823L96 711.823L96 667.023L33 667.023L33 719.873L4.99999 719.873L4.99999 624.673ZM2.54999 787.067C2.54999 774.701 4.29999 764.084 7.79999 755.217C11.3 746.584 17.4833 739.934 26.35 735.267C35.2167 730.601 47.7 728.267 63.8 728.267L76.05 728.267C76.05 735.501 76.05 742.617 76.05 749.617C76.05 756.617 76.05 763.617 76.05 770.617L60.3 770.617C51.6667 770.617 45.0167 771.317 40.35 772.717C35.9167 774.117 32.7667 776.101 30.9 778.667C29.2667 781.234 28.45 784.267 28.45 787.767C28.45 793.134 30.3167 797.334 34.05 800.367C38.0167 803.634 45.6 805.267 56.8 805.267C65.4333 805.267 71.85 803.867 76.05 801.067C80.4833 798.501 83.9833 794.301 86.55 788.467C89.35 782.634 92.7333 775.167 96.7 766.067C100.2 757.901 104.4 751.134 109.3 745.767C114.2 740.401 120.383 736.434 127.85 733.867C135.317 731.301 144.417 730.017 155.15 730.017C168.683 730.017 179.65 731.767 188.05 735.267C196.45 739.001 202.517 745.067 206.25 753.467C210.217 762.101 212.2 773.651 212.2 788.117C212.2 806.784 208.117 821.017 199.95 830.817C192.017 840.851 180 845.867 163.9 845.867L139.05 845.867C139.05 839.101 139.05 832.334 139.05 825.567C139.05 819.034 139.05 812.267 139.05 805.267L151.65 805.267C162.15 805.267 169.5 803.984 173.7 801.417C177.9 799.084 180 794.767 180 788.467C180 782.401 178.133 778.084 174.4 775.517C170.667 772.951 164.6 771.667 156.2 771.667C148.5 771.667 142.433 773.184 138 776.217C133.8 779.484 130.533 783.567 128.2 788.467C126.1 793.367 124 798.617 121.9 804.217C117.933 814.484 113.85 822.884 109.65 829.417C105.683 835.951 100.083 840.734 92.85 843.767C85.85 846.801 75.7 848.317 62.4 848.317C47.4667 848.317 35.5667 845.751 26.7 840.617C18.0667 835.717 11.8833 828.601 8.14998 819.267C4.41665 810.167 2.54999 799.434 2.54999 787.067ZM0.79998 920.986C0.799981 912.586 1.38331 904.886 2.54998 897.886C3.71665 890.886 6.16665 884.819 9.89998 879.686C13.6333 874.553 19.1166 870.586 26.35 867.786C33.8167 864.986 43.85 863.586 56.45 863.586L211.85 863.586L211.85 904.186L44.9 904.186C40 904.186 36.0333 904.886 33 906.286C30.2 907.919 28.3333 910.019 27.4 912.586C26.4666 915.153 26 917.953 26 920.986C26 923.786 26.4666 926.469 27.4 929.036C28.3333 931.603 30.2 933.586 33 934.986C36.0333 936.619 40 937.436 44.9 937.436L211.85 937.436L211.85 978.036L56.45 978.036C44.0833 978.036 34.1666 976.636 26.7 973.836C19.2333 971.036 13.6333 967.069 9.89998 961.936C6.16665 957.036 3.71665 950.969 2.54998 943.736C1.38331 936.736 0.79998 929.153 0.79998 920.986ZM4.99998 999.815L211.85 999.815L211.85 1040.07L33 1040.07L33 1086.97L4.99997 1086.97L4.99998 999.815ZM4.99997 1101.65L183.15 1101.65L183.15 1069.45L211.85 1069.45L211.85 1174.45L183.15 1174.45L183.15 1142.25L4.99997 1142.25L4.99997 1101.65ZM2.54997 1237.92C2.54997 1225.56 4.29997 1214.94 7.79997 1206.07C11.3 1197.44 17.4833 1190.79 26.35 1186.12C35.2166 1181.46 47.7 1179.12 63.8 1179.12L76.05 1179.12C76.05 1186.36 76.05 1193.47 76.05 1200.47C76.05 1207.47 76.05 1214.47 76.05 1221.47L60.3 1221.47C51.6666 1221.47 45.0166 1222.17 40.35 1223.57C35.9166 1224.97 32.7666 1226.96 30.9 1229.52C29.2666 1232.09 28.45 1235.12 28.45 1238.62C28.45 1243.99 30.3166 1248.19 34.05 1251.22C38.0166 1254.49 45.6 1256.12 56.8 1256.12C65.4333 1256.12 71.85 1254.72 76.05 1251.92C80.4833 1249.36 83.9833 1245.16 86.55 1239.32C89.35 1233.49 92.7333 1226.02 96.7 1216.92C100.2 1208.76 104.4 1201.99 109.3 1196.62C114.2 1191.26 120.383 1187.29 127.85 1184.72C135.317 1182.16 144.417 1180.87 155.15 1180.87C168.683 1180.87 179.65 1182.62 188.05 1186.12C196.45 1189.86 202.517 1195.92 206.25 1204.32C210.217 1212.96 212.2 1224.51 212.2 1238.97C212.2 1257.64 208.117 1271.87 199.95 1281.67C192.017 1291.71 180 1296.72 163.9 1296.72L139.05 1296.72C139.05 1289.96 139.05 1283.19 139.05 1276.42C139.05 1269.89 139.05 1263.12 139.05 1256.12L151.65 1256.12C162.15 1256.12 169.5 1254.84 173.7 1252.27C177.9 1249.94 180 1245.62 180 1239.32C180 1233.26 178.133 1228.94 174.4 1226.37C170.667 1223.81 164.6 1222.52 156.2 1222.52C148.5 1222.52 142.433 1224.04 138 1227.07C133.8 1230.34 130.533 1234.42 128.2 1239.32C126.1 1244.22 124 1249.47 121.9 1255.07C117.933 1265.34 113.85 1273.74 109.65 1280.27C105.683 1286.81 100.083 1291.59 92.85 1294.62C85.85 1297.66 75.7 1299.17 62.4 1299.17C47.4666 1299.17 35.5666 1296.61 26.7 1291.47C18.0666 1286.57 11.8833 1279.46 8.14997 1270.12C4.41663 1261.02 2.54997 1250.29 2.54997 1237.92Z" fill="#F32929"/>
</svg>
