<svg width="207" height="941" viewBox="0 0 207 941" fill="none" xmlns="http://www.w3.org/2000/svg">
<path d="M0 0H207V522H0V0Z" fill="#F32929"/>
<path d="M-6.42557e-07 509.7L206.85 509.7L206.85 560.45L73.15 588.8L206.85 617.5L206.85 667.9L-7.5577e-06 667.9L-5.9972e-06 632.2L154.7 632.2L-4.69679e-06 602.45L-3.48817e-06 574.8L154.7 545.4L-2.20305e-06 545.4L-6.42557e-07 509.7ZM-9.5792e-06 714.146L206.85 680.196L206.85 722.196L43.05 743.196L206.85 764.896L206.85 805.496L-1.20729e-05 771.196L-9.5792e-06 714.146ZM-1.41045e-05 817.673L206.85 817.673L206.85 891.173C206.85 904.939 203.7 915.323 197.4 922.323C191.333 929.556 182.817 933.173 171.85 933.173L136.15 933.173C126.817 933.173 118.067 932.006 109.9 929.673C101.967 927.339 95.55 923.139 90.65 917.073C85.75 911.006 83.3 902.256 83.3 890.823L83.3 860.023L-1.59556e-05 860.023L-1.41045e-05 817.673ZM105.7 860.023L105.7 875.773C105.7 881.373 108.383 885.573 113.75 888.373C119.117 891.173 127.983 892.573 140.35 892.573L154.35 892.573C165.317 892.573 173.133 891.406 177.8 889.073C182.467 886.739 184.8 883.356 184.8 878.923L184.8 860.023L105.7 860.023Z" fill="#F32929"/>
</svg>
