<svg width="245" height="65" viewBox="0 0 245 65" fill="none" xmlns="http://www.w3.org/2000/svg">
<path d="M244.152 36.9385C242.382 36.4585 240.502 36.3685 238.682 36.0985C239.902 36.4585 241.132 36.7985 242.352 37.1785C242.392 37.1885 242.432 37.2085 242.472 37.2185C239.612 38.0285 236.802 39.0685 233.832 39.3485C225.682 39.9885 217.492 39.0985 209.332 38.9685C194.682 38.5585 180.032 38.5085 165.392 38.7085C163.422 38.6685 161.462 38.6485 159.492 38.6385C161.952 38.3885 164.412 38.1285 166.862 37.8385C170.742 37.4585 174.622 37.0585 178.502 36.6385C175.912 36.5685 173.322 36.5185 170.742 36.4685C150.612 36.3485 130.472 36.1785 110.362 37.0785C99.2422 37.6985 87.7322 38.6285 76.2822 39.7285C90.8722 36.4885 105.422 33.0185 119.912 29.3585C132.432 25.8285 145.012 22.4785 157.662 19.4185C170.582 17.6385 183.402 15.2085 196.242 12.9285C208.392 10.8685 220.602 9.12852 232.642 6.50852C235.262 6.28852 236.912 3.15852 234.862 1.07852C233.662 -0.101477 231.922 0.138524 230.382 0.0485239C227.622 -0.0414761 224.842 -0.0314761 222.092 0.298524C203.332 2.73852 178.712 6.85852 157.522 12.3885C152.692 13.5385 147.882 14.7485 143.072 15.9885C134.362 17.1285 125.802 18.0585 115.892 19.1085C100.822 20.4085 85.7222 21.4185 70.7322 23.5085C59.3222 24.7085 45.1922 26.7485 35.3522 28.6485C26.5722 29.6985 17.7522 30.4885 8.93224 31.0085C22.0322 31.8285 35.1822 31.7885 48.2122 30.1085C58.2122 29.2085 68.2522 28.7285 78.2422 27.5985C88.8822 26.5485 99.5522 25.6985 110.202 24.7885C100.682 27.1685 91.1322 29.4585 81.5722 31.6885C55.6122 37.8885 29.2922 42.4185 3.24224 48.1985C0.082237 48.3585 -1.32776 52.3785 1.60224 54.1485C2.95224 54.9385 4.50223 54.5385 5.94223 54.2485C8.56223 53.8285 11.1822 53.4685 13.8022 53.0885C29.7222 50.1785 49.8122 47.6085 69.7222 45.6085C67.3522 46.0085 64.9822 46.4185 62.6222 46.8485C51.8922 48.4285 41.3522 50.9785 30.7522 53.2485C26.8222 54.0585 22.8922 54.8785 18.9822 55.7985C17.1122 56.2485 14.9022 56.3885 13.8222 58.2185C13.0422 59.5085 13.1522 61.3185 14.1222 62.4685C15.5922 64.4985 18.3722 64.2885 20.6022 64.4385C24.7322 64.6085 28.8822 64.3785 32.9922 63.9885C46.1322 62.4785 55.1822 61.0385 69.1022 59.4685C87.5522 57.5285 106.062 55.9785 124.432 53.3585C137.872 51.4785 151.192 48.8485 164.512 46.2485C166.522 45.8685 168.522 45.4685 170.532 45.0585C182.102 44.8685 193.672 44.5485 205.222 43.8085C214.712 43.0785 224.322 43.2085 233.712 41.5185C237.372 40.7885 240.692 39.0285 244.122 37.6285C244.352 37.4885 244.392 37.0985 244.152 36.9385ZM111.332 48.0685C101.152 49.2985 90.9422 50.1885 80.7322 51.1085C83.3222 50.6785 85.6522 50.2885 87.5922 49.9485C101.162 48.2585 114.782 46.8085 128.432 46.0085C122.732 46.7085 117.032 47.4085 111.332 48.0685Z" fill="#F32929"/>
</svg>
