<svg width="215" height="1087" viewBox="0 0 215 1087" fill="none" xmlns="http://www.w3.org/2000/svg">
<rect x="5" width="207" height="516" fill="#F32929"/>
<path d="M5 506.05L211.85 474.55L211.85 516.55L57.5 536.15L211.85 557.85L211.85 591.45L57.5 612.8L211.85 632.75L211.85 674.4L4.99999 643.25L4.99999 596L125.05 574.65L5 553.65L5 506.05ZM0.799988 739.095C0.799989 727.662 2.19999 717.629 4.99999 708.995C7.56666 700.362 13.05 693.595 21.45 688.695C30.0833 684.029 42.8 681.695 59.6 681.695L168.1 681.695C180.467 681.695 190.033 684.029 196.8 688.695C203.567 693.595 208.233 700.362 210.8 708.995C213.6 717.862 215 728.012 215 739.445C215 750.645 213.6 760.562 210.8 769.195C208 778.062 203.217 784.945 196.45 789.845C189.683 794.979 180.233 797.545 168.1 797.545L59.95 797.545C42.9167 797.545 30.0833 794.979 21.45 789.845C13.05 784.945 7.56665 778.062 4.99999 769.195C2.19999 760.562 0.799988 750.529 0.799988 739.095ZM24.6 739.095C24.6 742.595 25.1833 745.629 26.35 748.195C27.5167 750.995 29.5 753.095 32.3 754.495C35.3333 756.129 39.4167 756.945 44.55 756.945L169.85 756.945C174.983 756.945 178.95 756.129 181.75 754.495C184.783 753.095 186.883 750.995 188.05 748.195C189.217 745.629 189.8 742.595 189.8 739.095C189.8 735.595 189.217 732.562 188.05 729.995C186.883 727.429 184.783 725.329 181.75 723.695C178.95 722.295 174.983 721.595 169.85 721.595L44.55 721.595C39.4167 721.595 35.3333 722.295 32.3 723.695C29.5 725.329 27.5167 727.429 26.35 729.995C25.1833 732.562 24.6 735.595 24.6 739.095ZM4.99998 817.624L211.85 817.624L211.85 893.224C211.85 906.99 208.7 917.374 202.4 924.374C196.333 931.374 187.817 934.874 176.85 934.874L144.65 934.874C133.683 934.874 124.467 931.957 117 926.124C109.533 920.29 105.217 911.19 104.05 898.824C102.883 906.757 100.2 912.357 96 915.624C92.0333 919.124 85.5 922.157 76.4 924.724L4.99998 944.324L4.99998 899.174L73.6 884.124C79.2 882.724 83.8667 881.09 87.6 879.224C91.5667 877.59 93.55 875.14 93.55 871.874L93.55 859.974L4.99998 859.974L4.99998 817.624ZM121.9 859.974L121.9 876.774C121.9 883.307 123.65 887.974 127.15 890.774C130.883 893.574 136.717 894.974 144.65 894.974L169.5 894.974C176.967 894.974 182.217 893.69 185.25 891.124C188.283 888.557 189.8 884.59 189.8 879.224L189.8 859.974L121.9 859.974ZM4.99998 1039.5L112.45 999.946L211.85 1038.8L211.85 1082.2L112.45 1039.85L4.99997 1083.6L4.99998 1039.5ZM4.99998 957.596L211.85 957.596L211.85 998.196L4.99998 998.196L4.99998 957.596Z" fill="#F32929"/>
</svg>
